# xmcd
#
# Track frame offsets:
#	150
#	22513
#	38113
#	55262
#	67974
#	91900
#	106712
#	124694
#	137886
#	150132
#
# Disc length: 2334 seconds
#
# Revision: 1
# Processed by: cddbd v1.5.2PL0 Copyright (c) Steve Scherf et al.
# Submitted via: audiograbber 1.83.01
#
DISCID=6a091c0a
DTITLE=Dolly Parton - New Harvest...First Gathering
DYEAR=1977
DGENRE=Country
TTITLE0=Light Of A Clear Blue Morning
TTITLE1=Applejack
TTITLE2=My Girl (My Love)
TTITLE3=Holdin' On To You
TTITLE4=You Are
TTITLE5=How Does It Feel
TTITLE6=Where Beauty Lives In Memory
TTITLE7=(Your Love Has Lifted Me) High
TTITLE8=Getting In My Way
TTITLE9=There
EXTD=
EXTT0=
EXTT1=
EXTT2=
EXTT3=
EXTT4=
EXTT5=
EXTT6=
EXTT7=
EXTT8=
EXTT9=
PLAYORDER=
